{
    "accessors" : [
        {
            "bufferView" : 0,
            "componentType" : 5125,
            "count" : 2387256,
            "max" : [
                2380787
            ],
            "min" : [
                0
            ],
            "type" : "SCALAR"
        },
        {
            "bufferView" : 1,
            "componentType" : 5126,
            "count" : 2380788,
            "max" : [
                63.0,
                126.0,
                63.0
            ],
            "min" : [
                -63.0,
                0.0,
                -63.0
            ],
            "type" : "VEC3"
        },
        {
            "bufferView" : 2,
            "componentType" : 5126,
            "count" : 2380788,
            "max" : [
                1.0,
                1.0,
                1.0
            ],
            "min" : [
                -1.0,
                -1.0,
                -1.0
            ],
            "type" : "VEC3"
        },
        {
            "bufferView" : 3,
            "componentType" : 5126,
            "count" : 2380788,
            "max" : [
                1.0,
                1.0,
                1.0,
                1.0
            ],
            "min" : [
                0.0,
                0.001821161936910898,
                0.0,
                1.0
            ],
            "type" : "VEC4"
        }
    ],
    "asset" : {
        "generator" : "Khronos Blender glTF 2.0 exporter",
        "version" : "2.0"
    },
    "bufferViews" : [
        {
            "buffer" : 0,
            "byteLength" : 9549024,
            "byteOffset" : 0,
            "target" : 34963
        },
        {
            "buffer" : 0,
            "byteLength" : 28569456,
            "byteOffset" : 9549024,
            "target" : 34962
        },
        {
            "buffer" : 0,
            "byteLength" : 28569456,
            "byteOffset" : 38118480,
            "target" : 34962
        },
        {
            "buffer" : 0,
            "byteLength" : 38092608,
            "byteOffset" : 66687936,
            "target" : 34962
        }
    ],
    "buffers" : [
        {
            "byteLength" : 104780544,
            "uri" : "apartment.bin"
        }
    ],
    "meshes" : [
        {
            "name" : "apartment",
            "primitives" : [
                {
                    "attributes" : {
                        "COLOR_0" : 3,
                        "NORMAL" : 2,
                        "POSITION" : 1
                    },
                    "indices" : 0
                }
            ]
        }
    ],
    "nodes" : [
        {
            "mesh" : 0,
            "name" : "apartment"
        },
        {
            "name" : "Camera",
            "rotation" : [
                0.483536034822464,
                0.33687159419059753,
                -0.20870360732078552,
                0.7804827094078064
            ],
            "translation" : [
                7.481131553649902,
                5.34366512298584,
                6.5076398849487305
            ]
        },
        {
            "name" : "Lamp",
            "rotation" : [
                0.16907575726509094,
                0.7558802962303162,
                -0.27217137813568115,
                0.570947527885437
            ],
            "scale" : [
                1.0,
                1.0,
                0.9999999403953552
            ],
            "translation" : [
                4.076245307922363,
                5.903861999511719,
                -1.0054539442062378
            ]
        }
    ],
    "scene" : 0,
    "scenes" : [
        {
            "name" : "Scene",
            "nodes" : [
                0,
                2,
                1
            ]
        }
    ]
}
