ply
format ascii 1.0
comment : 
comment : MagicaVoxel @ Ephtracy
element vertex 940
property float x
property float y
property float z
property uchar red
property uchar green
property uchar blue
element face 752
property list uchar int vertex_index
end_header
-5 -1.5 21 255 255 255
-4 -1.5 21 255 255 255
-4 -0.5 21 255 255 255
-5 -0.5 21 255 255 255
-4.5 -1 21 255 255 255
-4 -1.5 21 255 255 255
-3 -1.5 21 255 255 255
-3 -0.5 21 255 255 255
-4 -0.5 21 255 255 255
-3.5 -1 21 255 255 255
-3 -1.5 21 255 255 255
-2 -1.5 21 255 255 255
-2 -0.5 21 255 255 255
-3 -0.5 21 255 255 255
-2.5 -1 21 255 255 255
-2 -1.5 21 255 255 255
-1 -1.5 21 255 255 255
-1 -0.5 21 255 255 255
-2 -0.5 21 255 255 255
-1.5 -1 21 255 255 255
-1 -1.5 21 255 255 255
0 -1.5 21 255 255 255
0 -0.5 21 255 255 255
-1 -0.5 21 255 255 255
-0.5 -1 21 255 255 255
0 -1.5 21 255 255 255
1 -1.5 21 255 255 255
1 -0.5 21 255 255 255
0 -0.5 21 255 255 255
0.5 -1 21 255 255 255
1 -1.5 21 255 255 255
2 -1.5 21 255 255 255
2 -0.5 21 255 255 255
1 -0.5 21 255 255 255
1.5 -1 21 255 255 255
2 -1.5 21 255 255 255
3 -1.5 21 255 255 255
3 -0.5 21 255 255 255
2 -0.5 21 255 255 255
2.5 -1 21 255 255 255
3 -1.5 21 255 255 255
4 -1.5 21 255 255 255
4 -0.5 21 255 255 255
3 -0.5 21 255 255 255
3.5 -1 21 255 255 255
4 -1.5 21 255 255 255
5 -1.5 21 255 255 255
5 -0.5 21 255 255 255
4 -0.5 21 255 255 255
4.5 -1 21 255 255 255
-5 -0.5 21 255 255 255
-4 -0.5 21 255 255 255
-4 0.5 21 255 255 255
-5 0.5 21 255 255 255
-4.5 0 21 255 255 255
-4 -0.5 21 255 255 255
-3 -0.5 21 255 255 255
-3 0.5 21 255 255 255
-4 0.5 21 255 255 255
-3.5 0 21 255 255 255
-3 -0.5 21 255 255 255
-2 -0.5 21 255 255 255
-2 0.5 21 255 255 255
-3 0.5 21 255 255 255
-2.5 0 21 255 255 255
-2 -0.5 21 255 255 255
-1 -0.5 21 255 255 255
-1 0.5 21 255 255 255
-2 0.5 21 255 255 255
-1.5 0 21 255 255 255
-1 -0.5 21 255 255 255
0 -0.5 21 255 255 255
0 0.5 21 255 255 255
-1 0.5 21 255 255 255
-0.5 0 21 255 255 255
0 -0.5 21 255 255 255
1 -0.5 21 255 255 255
1 0.5 21 255 255 255
0 0.5 21 255 255 255
0.5 0 21 255 255 255
1 -0.5 21 255 255 255
2 -0.5 21 255 255 255
2 0.5 21 255 255 255
1 0.5 21 255 255 255
1.5 0 21 255 255 255
2 -0.5 21 255 255 255
3 -0.5 21 255 255 255
3 0.5 21 255 255 255
2 0.5 21 255 255 255
2.5 0 21 255 255 255
-5 0.5 21 255 255 255
-4 0.5 21 255 255 255
-4 1.5 21 255 255 255
-5 1.5 21 255 255 255
-4.5 1 21 255 255 255
-4 0.5 21 255 255 255
-3 0.5 21 255 255 255
-3 1.5 21 255 255 255
-4 1.5 21 255 255 255
-3.5 1 21 255 255 255
-3 0.5 21 255 255 255
-2 0.5 21 255 255 255
-2 1.5 21 255 255 255
-3 1.5 21 255 255 255
-2.5 1 21 255 255 255
-2 0.5 21 255 255 255
-1 0.5 21 255 255 255
-1 1.5 21 255 255 255
-2 1.5 21 255 255 255
-1.5 1 21 255 255 255
-1 0.5 21 255 255 255
0 0.5 21 255 255 255
0 1.5 21 255 255 255
-1 1.5 21 255 255 255
-0.5 1 21 255 255 255
0 0.5 21 255 255 255
1 0.5 21 255 255 255
1 1.5 21 255 255 255
0 1.5 21 255 255 255
0.5 1 21 255 255 255
1 0.5 21 255 255 255
2 0.5 21 255 255 255
2 1.5 21 255 255 255
1 1.5 21 255 255 255
1.5 1 21 255 255 255
2 0.5 21 255 255 255
3 0.5 21 255 255 255
3 1.5 21 255 255 255
2 1.5 21 255 255 255
2.5 1 21 255 255 255
3 0.5 21 255 255 255
4 0.5 21 255 255 255
4 1.5 21 255 255 255
3 1.5 21 255 255 255
3.5 1 21 255 255 255
4 0.5 21 255 255 255
5 0.5 21 255 255 255
5 1.5 21 255 255 255
4 1.5 21 255 255 255
4.5 1 21 255 255 255
3 -0.5 21 255 255 255
4 -0.5 21 255 255 255
4 0.5 21 255 255 255
3 0.5 21 255 255 255
3.5 0 21 255 255 255
4 -0.5 21 255 255 255
5 -0.5 21 255 255 255
5 0.5 21 255 255 255
4 0.5 21 255 255 255
4.5 0 21 255 255 255
5 0.5 19 235 235 235
5 1.5 19 235 235 235
5 1.5 20 237 237 237
5 0.5 20 237 237 237
5 1 19.5 236 236 236
5 -1.5 19 235 235 235
5 -0.5 19 235 235 235
5 -0.5 20 237 237 237
5 -1.5 20 237 237 237
5 -1 19.5 236 236 236
5 -1.5 20 237 237 237
5 -0.5 20 237 237 237
5 -0.5 21 239 239 239
5 -1.5 21 239 239 239
5 -1 20.5 238 238 238
5 0.5 20 237 237 237
5 1.5 20 237 237 237
5 1.5 21 238 238 238
5 0.5 21 238 238 238
5 1 20.5 237 237 237
5 -0.5 0 157 157 157
5 0.5 0 157 157 157
5 0.5 1 164 164 164
5 -0.5 1 164 164 164
5 0 0.5 161 161 161
5 -0.5 1 164 164 164
5 0.5 1 164 164 164
5 0.5 2 171 171 171
5 -0.5 2 171 171 171
5 0 1.5 167 167 167
5 -0.5 2 171 171 171
5 0.5 2 171 171 171
5 0.5 3 177 177 177
5 -0.5 3 177 177 177
5 0 2.5 174 174 174
5 -0.5 3 177 177 177
5 0.5 3 177 177 177
5 0.5 4 182 182 182
5 -0.5 4 182 182 182
5 0 3.5 180 180 180
5 -0.5 4 182 182 182
5 0.5 4 182 182 182
5 0.5 5 188 188 188
5 -0.5 5 188 188 188
5 0 4.5 185 185 185
5 -0.5 5 188 188 188
5 0.5 5 188 188 188
5 0.5 6 192 192 192
5 -0.5 6 192 192 192
5 0 5.5 190 190 190
5 -0.5 6 192 192 192
5 0.5 6 192 192 192
5 0.5 7 196 196 196
5 -0.5 7 196 196 196
5 0 6.5 194 194 194
5 -0.5 7 196 196 196
5 0.5 7 196 196 196
5 0.5 8 201 201 201
5 -0.5 8 201 201 201
5 0 7.5 198 198 198
5 -0.5 8 201 201 201
5 0.5 8 201 201 201
5 0.5 9 205 205 205
5 -0.5 9 205 205 205
5 0 8.5 203 203 203
5 -0.5 9 205 205 205
5 0.5 9 205 205 205
5 0.5 10 211 211 211
5 -0.5 10 210 210 210
5 0 9.5 208 208 208
5 -0.5 10 210 210 210
5 0.5 10 211 211 211
5 0.5 11 215 215 215
5 -0.5 11 215 215 215
5 0 10.5 213 213 213
5 -0.5 11 215 215 215
5 0.5 11 215 215 215
5 0.5 12 219 219 219
5 -0.5 12 219 219 219
5 0 11.5 217 217 217
5 -0.5 12 219 219 219
5 0.5 12 219 219 219
5 0.5 13 222 222 222
5 -0.5 13 222 222 222
5 0 12.5 221 221 221
5 -0.5 13 222 222 222
5 0.5 13 222 222 222
5 0.5 14 225 225 225
5 -0.5 14 224 224 224
5 0 13.5 223 223 223
5 -0.5 14 224 224 224
5 0.5 14 225 225 225
5 0.5 15 227 227 227
5 -0.5 15 226 226 226
5 0 14.5 225 225 225
5 -0.5 15 226 226 226
5 0.5 15 227 227 227
5 0.5 16 228 228 228
5 -0.5 16 229 229 229
5 0 15.5 228 228 228
5 -0.5 16 229 229 229
5 0.5 16 228 228 228
5 0.5 17 230 230 230
5 -0.5 17 230 230 230
5 0 16.5 229 229 229
5 -0.5 17 230 230 230
5 0.5 17 230 230 230
5 0.5 18 233 233 233
5 -0.5 18 233 233 233
5 0 17.5 232 232 232
5 -0.5 18 233 233 233
5 0.5 18 233 233 233
5 0.5 19 235 235 235
5 -0.5 19 235 235 235
5 0 18.5 234 234 234
5 -0.5 19 235 235 235
5 0.5 19 235 235 235
5 0.5 20 237 237 237
5 -0.5 20 237 237 237
5 0 19.5 236 236 236
5 -0.5 20 237 237 237
5 0.5 20 237 237 237
5 0.5 21 238 238 238
5 -0.5 21 239 239 239
5 0 20.5 238 238 238
4 1.5 19 221 221 221
4 1.5 20 223 223 223
5 1.5 20 224 224 224
5 1.5 19 221 221 221
4.5 1.5 19.5 222 222 222
3 1.5 19 221 221 221
3 1.5 20 223 223 223
4 1.5 20 223 223 223
4 1.5 19 221 221 221
3.5 1.5 19.5 222 222 222
-5 1.5 19 221 221 221
-5 1.5 20 223 223 223
-4 1.5 20 223 223 223
-4 1.5 19 221 221 221
-4.5 1.5 19.5 222 222 222
-4 1.5 19 221 221 221
-4 1.5 20 223 223 223
-3 1.5 20 222 222 222
-3 1.5 19 221 221 221
-3.5 1.5 19.5 222 222 222
-3 1.5 19 221 221 221
-3 1.5 20 222 222 222
-2 1.5 20 223 223 223
-2 1.5 19 221 221 221
-2.5 1.5 19.5 222 222 222
-2 1.5 19 221 221 221
-2 1.5 20 223 223 223
-1 1.5 20 223 223 223
-1 1.5 19 221 221 221
-1.5 1.5 19.5 222 222 222
-1 1.5 19 221 221 221
-1 1.5 20 223 223 223
0 1.5 20 223 223 223
0 1.5 19 221 221 221
-0.5 1.5 19.5 222 222 222
0 1.5 19 221 221 221
0 1.5 20 223 223 223
1 1.5 20 223 223 223
1 1.5 19 221 221 221
0.5 1.5 19.5 222 222 222
1 1.5 19 221 221 221
1 1.5 20 223 223 223
2 1.5 20 223 223 223
2 1.5 19 221 221 221
1.5 1.5 19.5 222 222 222
2 1.5 19 221 221 221
2 1.5 20 223 223 223
3 1.5 20 223 223 223
3 1.5 19 221 221 221
2.5 1.5 19.5 222 222 222
-5 1.5 20 223 223 223
-5 1.5 21 224 224 224
-4 1.5 21 224 224 224
-4 1.5 20 223 223 223
-4.5 1.5 20.5 223 223 223
-4 1.5 20 223 223 223
-4 1.5 21 224 224 224
-3 1.5 21 224 224 224
-3 1.5 20 222 222 222
-3.5 1.5 20.5 223 223 223
-3 1.5 20 222 222 222
-3 1.5 21 224 224 224
-2 1.5 21 224 224 224
-2 1.5 20 223 223 223
-2.5 1.5 20.5 223 223 223
-2 1.5 20 223 223 223
-2 1.5 21 224 224 224
-1 1.5 21 224 224 224
-1 1.5 20 223 223 223
-1.5 1.5 20.5 223 223 223
-1 1.5 20 223 223 223
-1 1.5 21 224 224 224
0 1.5 21 224 224 224
0 1.5 20 223 223 223
-0.5 1.5 20.5 224 224 224
0 1.5 20 223 223 223
0 1.5 21 224 224 224
1 1.5 21 224 224 224
1 1.5 20 223 223 223
0.5 1.5 20.5 224 224 224
1 1.5 20 223 223 223
1 1.5 21 224 224 224
2 1.5 21 224 224 224
2 1.5 20 223 223 223
1.5 1.5 20.5 224 224 224
2 1.5 20 223 223 223
2 1.5 21 224 224 224
3 1.5 21 224 224 224
3 1.5 20 223 223 223
2.5 1.5 20.5 224 224 224
3 1.5 20 223 223 223
3 1.5 21 224 224 224
4 1.5 21 225 225 225
4 1.5 20 223 223 223
3.5 1.5 20.5 224 224 224
4 1.5 20 223 223 223
4 1.5 21 225 225 225
5 1.5 21 225 225 225
5 1.5 20 224 224 224
4.5 1.5 20.5 224 224 224
4 0.5 0 142 142 142
4 0.5 1 148 148 148
5 0.5 1 148 148 148
5 0.5 0 142 142 142
4.5 0.5 0.5 145 145 145
4 0.5 1 148 148 148
4 0.5 2 153 153 153
5 0.5 2 154 154 154
5 0.5 1 148 148 148
4.5 0.5 1.5 151 151 151
4 0.5 2 153 153 153
4 0.5 3 159 159 159
5 0.5 3 160 160 160
5 0.5 2 154 154 154
4.5 0.5 2.5 157 157 157
4 0.5 3 159 159 159
4 0.5 4 165 165 165
5 0.5 4 166 166 166
5 0.5 3 160 160 160
4.5 0.5 3.5 162 162 162
4 0.5 4 165 165 165
4 0.5 5 171 171 171
5 0.5 5 171 171 171
5 0.5 4 166 166 166
4.5 0.5 4.5 168 168 168
4 0.5 5 171 171 171
4 0.5 6 176 176 176
5 0.5 6 176 176 176
5 0.5 5 171 171 171
4.5 0.5 5.5 174 174 174
4 0.5 6 176 176 176
4 0.5 7 181 181 181
5 0.5 7 181 181 181
5 0.5 6 176 176 176
4.5 0.5 6.5 178 178 178
4 0.5 7 181 181 181
4 0.5 8 185 185 185
5 0.5 8 186 186 186
5 0.5 7 181 181 181
4.5 0.5 7.5 183 183 183
4 0.5 8 185 185 185
4 0.5 9 190 190 190
5 0.5 9 190 190 190
5 0.5 8 186 186 186
4.5 0.5 8.5 188 188 188
4 0.5 9 190 190 190
4 0.5 10 194 194 194
5 0.5 10 195 195 195
5 0.5 9 190 190 190
4.5 0.5 9.5 192 192 192
4 0.5 10 194 194 194
4 0.5 11 198 198 198
5 0.5 11 199 199 199
5 0.5 10 195 195 195
4.5 0.5 10.5 196 196 196
4 0.5 11 198 198 198
4 0.5 12 201 201 201
5 0.5 12 202 202 202
5 0.5 11 199 199 199
4.5 0.5 11.5 200 200 200
4 0.5 12 201 201 201
4 0.5 13 204 204 204
5 0.5 13 205 205 205
5 0.5 12 202 202 202
4.5 0.5 12.5 203 203 203
4 0.5 13 204 204 204
4 0.5 14 207 207 207
5 0.5 14 207 207 207
5 0.5 13 205 205 205
4.5 0.5 13.5 206 206 206
4 0.5 14 207 207 207
4 0.5 15 209 209 209
5 0.5 15 209 209 209
5 0.5 14 207 207 207
4.5 0.5 14.5 208 208 208
4 0.5 15 209 209 209
4 0.5 16 209 209 209
5 0.5 16 210 210 210
5 0.5 15 209 209 209
4.5 0.5 15.5 209 209 209
4 0.5 16 209 209 209
4 0.5 17 206 206 206
5 0.5 17 209 209 209
5 0.5 16 210 210 210
4.5 0.5 16.5 209 209 209
4 0.5 17 206 206 206
4 0.5 18 183 183 183
5 0.5 18 195 195 195
5 0.5 17 209 209 209
4.5 0.5 17.5 198 198 198
4 0.5 18 183 183 183
4 0.5 19 162 162 162
5 0.5 19 178 178 178
5 0.5 18 195 195 195
4.5 0.5 18.5 179 179 179
4 0.5 19 99 99 99
4 1.5 19 107 107 107
5 1.5 19 111 111 111
5 0.5 19 107 107 107
4.5 1 19 106 106 106
3 0.5 19 106 106 106
3 1.5 19 111 111 111
4 1.5 19 107 107 107
4 0.5 19 99 99 99
3.5 1 19 106 106 106
3 -1.5 19 111 111 111
3 -0.5 19 106 106 106
4 -0.5 19 100 100 100
4 -1.5 19 108 108 108
3.5 -1 19 106 106 106
4 -1.5 19 108 108 108
4 -0.5 19 100 100 100
5 -0.5 19 106 106 106
5 -1.5 19 110 110 110
4.5 -1 19 106 106 106
-5 -1.5 19 120 120 120
-5 -0.5 19 119 119 119
-4 -0.5 19 117 117 117
-4 -1.5 19 118 118 118
-4.5 -1 19 119 119 119
-4 -1.5 19 118 118 118
-4 -0.5 19 117 117 117
-3 -0.5 19 116 116 116
-3 -1.5 19 117 117 117
-3.5 -1 19 117 117 117
-3 -1.5 19 117 117 117
-3 -0.5 19 116 116 116
-2 -0.5 19 116 116 116
-2 -1.5 19 117 117 117
-2.5 -1 19 116 116 116
-2 -1.5 19 117 117 117
-2 -0.5 19 116 116 116
-1 -0.5 19 115 115 115
-1 -1.5 19 116 116 116
-1.5 -1 19 116 116 116
-1 -1.5 19 116 116 116
-1 -0.5 19 115 115 115
0 -0.5 19 114 114 114
0 -1.5 19 115 115 115
-0.5 -1 19 115 115 115
0 -1.5 19 115 115 115
0 -0.5 19 114 114 114
1 -0.5 19 113 113 113
1 -1.5 19 115 115 115
0.5 -1 19 115 115 115
1 -1.5 19 115 115 115
1 -0.5 19 113 113 113
2 -0.5 19 112 112 112
2 -1.5 19 114 114 114
1.5 -1 19 114 114 114
2 -1.5 19 114 114 114
2 -0.5 19 112 112 112
3 -0.5 19 106 106 106
3 -1.5 19 111 111 111
2.5 -1 19 111 111 111
-5 -0.5 19 119 119 119
-5 0.5 19 119 119 119
-4 0.5 19 117 117 117
-4 -0.5 19 117 117 117
-4.5 0 19 118 118 118
-4 -0.5 19 94 117 0
-4 0.5 19 93 117 0
-3 0.5 19 93 116 0
-3 -0.5 19 93 116 0
-3.5 0 19 93 117 0
-3 -0.5 19 93 116 0
-3 0.5 19 93 116 0
-2 0.5 19 92 115 0
-2 -0.5 19 92 116 0
-2.5 0 19 92 116 0
-2 -0.5 19 92 116 0
-2 0.5 19 92 115 0
-1 0.5 19 92 115 0
-1 -0.5 19 92 115 0
-1.5 0 19 92 115 0
-1 -0.5 19 92 115 0
-1 0.5 19 92 115 0
0 0.5 19 92 115 0
0 -0.5 19 91 114 0
-0.5 0 19 92 115 0
0 -0.5 19 91 114 0
0 0.5 19 92 115 0
1 0.5 19 91 114 0
1 -0.5 19 91 113 0
0.5 0 19 91 114 0
1 -0.5 19 91 113 0
1 0.5 19 91 114 0
2 0.5 19 90 113 0
2 -0.5 19 90 112 0
1.5 0 19 90 113 0
2 -0.5 19 112 112 112
2 0.5 19 113 113 113
3 0.5 19 106 106 106
3 -0.5 19 106 106 106
2.5 0 19 109 109 109
-5 0.5 19 119 119 119
-5 1.5 19 120 120 120
-4 1.5 19 119 119 119
-4 0.5 19 117 117 117
-4.5 1 19 119 119 119
-4 0.5 19 117 117 117
-4 1.5 19 119 119 119
-3 1.5 19 118 118 118
-3 0.5 19 116 116 116
-3.5 1 19 117 117 117
-3 0.5 19 116 116 116
-3 1.5 19 118 118 118
-2 1.5 19 117 117 117
-2 0.5 19 115 115 115
-2.5 1 19 116 116 116
-2 0.5 19 115 115 115
-2 1.5 19 117 117 117
-1 1.5 19 117 117 117
-1 0.5 19 115 115 115
-1.5 1 19 116 116 116
-1 0.5 19 115 115 115
-1 1.5 19 117 117 117
0 1.5 19 117 117 117
0 0.5 19 115 115 115
-0.5 1 19 116 116 116
0 0.5 19 115 115 115
0 1.5 19 117 117 117
1 1.5 19 116 116 116
1 0.5 19 114 114 114
0.5 1 19 115 115 115
1 0.5 19 114 114 114
1 1.5 19 116 116 116
2 1.5 19 114 114 114
2 0.5 19 113 113 113
1.5 1 19 114 114 114
2 0.5 19 113 113 113
2 1.5 19 114 114 114
3 1.5 19 111 111 111
3 0.5 19 106 106 106
2.5 1 19 111 111 111
4 -0.5 0 26 26 26
4 0.5 0 26 26 26
5 0.5 0 26 26 26
5 -0.5 0 26 26 26
4.5 0 0 26 26 26
3 -0.5 19 106 106 106
3 0.5 19 106 106 106
4 0.5 19 99 99 99
4 -0.5 19 100 100 100
3.5 0 19 103 103 103
-5 -1.5 19 220 220 220
-5 -1.5 20 221 221 221
-5 -0.5 20 221 221 221
-5 -0.5 19 220 220 220
-5 -1 19.5 220 220 220
-5 -0.5 19 220 220 220
-5 -0.5 20 221 221 221
-5 0.5 20 221 221 221
-5 0.5 19 220 220 220
-5 0 19.5 220 220 220
-5 0.5 19 220 220 220
-5 0.5 20 221 221 221
-5 1.5 20 221 221 221
-5 1.5 19 220 220 220
-5 1 19.5 220 220 220
-5 -1.5 20 221 221 221
-5 -1.5 21 223 223 223
-5 -0.5 21 222 222 222
-5 -0.5 20 221 221 221
-5 -1 20.5 222 222 222
-5 -0.5 20 221 221 221
-5 -0.5 21 222 222 222
-5 0.5 21 222 222 222
-5 0.5 20 221 221 221
-5 0 20.5 222 222 222
-5 0.5 20 221 221 221
-5 0.5 21 222 222 222
-5 1.5 21 222 222 222
-5 1.5 20 221 221 221
-5 1 20.5 222 222 222
4 -0.5 0 136 136 136
4 -0.5 1 140 140 140
4 0.5 1 140 140 140
4 0.5 0 136 136 136
4 0 0.5 138 138 138
4 -0.5 1 140 140 140
4 -0.5 2 145 145 145
4 0.5 2 145 145 145
4 0.5 1 140 140 140
4 0 1.5 142 142 142
4 -0.5 2 145 145 145
4 -0.5 3 151 151 151
4 0.5 3 151 151 151
4 0.5 2 145 145 145
4 0 2.5 148 148 148
4 -0.5 3 151 151 151
4 -0.5 4 156 156 156
4 0.5 4 156 156 156
4 0.5 3 151 151 151
4 0 3.5 153 153 153
4 -0.5 4 156 156 156
4 -0.5 5 161 161 161
4 0.5 5 161 161 161
4 0.5 4 156 156 156
4 0 4.5 158 158 158
4 -0.5 5 161 161 161
4 -0.5 6 165 165 165
4 0.5 6 165 165 165
4 0.5 5 161 161 161
4 0 5.5 163 163 163
4 -0.5 6 165 165 165
4 -0.5 7 169 169 169
4 0.5 7 169 169 169
4 0.5 6 165 165 165
4 0 6.5 167 167 167
4 -0.5 7 169 169 169
4 -0.5 8 172 172 172
4 0.5 8 172 172 172
4 0.5 7 169 169 169
4 0 7.5 170 170 170
4 -0.5 8 172 172 172
4 -0.5 9 175 175 175
4 0.5 9 175 175 175
4 0.5 8 172 172 172
4 0 8.5 174 174 174
4 -0.5 9 175 175 175
4 -0.5 10 178 178 178
4 0.5 10 178 178 178
4 0.5 9 175 175 175
4 0 9.5 177 177 177
4 -0.5 10 178 178 178
4 -0.5 11 180 180 180
4 0.5 11 180 180 180
4 0.5 10 178 178 178
4 0 10.5 179 179 179
4 -0.5 11 180 180 180
4 -0.5 12 181 181 181
4 0.5 12 181 181 181
4 0.5 11 180 180 180
4 0 11.5 181 181 181
4 -0.5 12 181 181 181
4 -0.5 13 182 182 182
4 0.5 13 181 181 181
4 0.5 12 181 181 181
4 0 12.5 181 181 181
4 -0.5 13 182 182 182
4 -0.5 14 180 180 180
4 0.5 14 180 180 180
4 0.5 13 181 181 181
4 0 13.5 181 181 181
4 -0.5 14 180 180 180
4 -0.5 15 178 178 178
4 0.5 15 178 178 178
4 0.5 14 180 180 180
4 0 14.5 179 179 179
4 -0.5 15 178 178 178
4 -0.5 16 174 174 174
4 0.5 16 173 173 173
4 0.5 15 178 178 178
4 0 15.5 176 176 176
4 -0.5 16 174 174 174
4 -0.5 17 164 164 164
4 0.5 17 163 163 163
4 0.5 16 173 173 173
4 0 16.5 168 168 168
4 -0.5 17 164 164 164
4 -0.5 18 143 143 143
4 0.5 18 143 143 143
4 0.5 17 163 163 163
4 0 17.5 153 153 153
4 -0.5 18 143 143 143
4 -0.5 19 129 129 129
4 0.5 19 130 130 130
4 0.5 18 143 143 143
4 0 18.5 136 136 136
3 -1.5 19 232 232 232
4 -1.5 19 232 232 232
4 -1.5 20 234 234 234
3 -1.5 20 233 233 233
3.5 -1.5 19.5 233 233 233
4 -1.5 19 232 232 232
5 -1.5 19 232 232 232
5 -1.5 20 234 234 234
4 -1.5 20 234 234 234
4.5 -1.5 19.5 233 233 233
-5 -1.5 19 232 232 232
-4 -1.5 19 232 232 232
-4 -1.5 20 233 233 233
-5 -1.5 20 233 233 233
-4.5 -1.5 19.5 232 232 232
-4 -1.5 19 232 232 232
-3 -1.5 19 232 232 232
-3 -1.5 20 233 233 233
-4 -1.5 20 233 233 233
-3.5 -1.5 19.5 232 232 232
-3 -1.5 19 232 232 232
-2 -1.5 19 232 232 232
-2 -1.5 20 233 233 233
-3 -1.5 20 233 233 233
-2.5 -1.5 19.5 232 232 232
-2 -1.5 19 232 232 232
-1 -1.5 19 232 232 232
-1 -1.5 20 233 233 233
-2 -1.5 20 233 233 233
-1.5 -1.5 19.5 232 232 232
-1 -1.5 19 232 232 232
0 -1.5 19 232 232 232
0 -1.5 20 233 233 233
-1 -1.5 20 233 233 233
-0.5 -1.5 19.5 232 232 232
0 -1.5 19 232 232 232
1 -1.5 19 231 231 231
1 -1.5 20 233 233 233
0 -1.5 20 233 233 233
0.5 -1.5 19.5 232 232 232
1 -1.5 19 231 231 231
2 -1.5 19 231 231 231
2 -1.5 20 233 233 233
1 -1.5 20 233 233 233
1.5 -1.5 19.5 232 232 232
2 -1.5 19 231 231 231
3 -1.5 19 232 232 232
3 -1.5 20 233 233 233
2 -1.5 20 233 233 233
2.5 -1.5 19.5 232 232 232
-5 -1.5 20 233 233 233
-4 -1.5 20 233 233 233
-4 -1.5 21 234 234 234
-5 -1.5 21 234 234 234
-4.5 -1.5 20.5 233 233 233
-4 -1.5 20 233 233 233
-3 -1.5 20 233 233 233
-3 -1.5 21 234 234 234
-4 -1.5 21 234 234 234
-3.5 -1.5 20.5 233 233 233
-3 -1.5 20 233 233 233
-2 -1.5 20 233 233 233
-2 -1.5 21 234 234 234
-3 -1.5 21 234 234 234
-2.5 -1.5 20.5 233 233 233
-2 -1.5 20 233 233 233
-1 -1.5 20 233 233 233
-1 -1.5 21 234 234 234
-2 -1.5 21 234 234 234
-1.5 -1.5 20.5 233 233 233
-1 -1.5 20 233 233 233
0 -1.5 20 233 233 233
0 -1.5 21 234 234 234
-1 -1.5 21 234 234 234
-0.5 -1.5 20.5 234 234 234
0 -1.5 20 233 233 233
1 -1.5 20 233 233 233
1 -1.5 21 235 235 235
0 -1.5 21 234 234 234
0.5 -1.5 20.5 234 234 234
1 -1.5 20 233 233 233
2 -1.5 20 233 233 233
2 -1.5 21 235 235 235
1 -1.5 21 235 235 235
1.5 -1.5 20.5 234 234 234
2 -1.5 20 233 233 233
3 -1.5 20 233 233 233
3 -1.5 21 235 235 235
2 -1.5 21 235 235 235
2.5 -1.5 20.5 234 234 234
3 -1.5 20 233 233 233
4 -1.5 20 234 234 234
4 -1.5 21 235 235 235
3 -1.5 21 235 235 235
3.5 -1.5 20.5 234 234 234
4 -1.5 20 234 234 234
5 -1.5 20 234 234 234
5 -1.5 21 235 235 235
4 -1.5 21 235 235 235
4.5 -1.5 20.5 235 235 235
4 -0.5 0 154 154 154
5 -0.5 0 155 155 155
5 -0.5 1 160 160 160
4 -0.5 1 159 159 159
4.5 -0.5 0.5 157 157 157
4 -0.5 1 159 159 159
5 -0.5 1 160 160 160
5 -0.5 2 165 165 165
4 -0.5 2 165 165 165
4.5 -0.5 1.5 162 162 162
4 -0.5 2 165 165 165
5 -0.5 2 165 165 165
5 -0.5 3 170 170 170
4 -0.5 3 170 170 170
4.5 -0.5 2.5 168 168 168
4 -0.5 3 170 170 170
5 -0.5 3 170 170 170
5 -0.5 4 175 175 175
4 -0.5 4 175 175 175
4.5 -0.5 3.5 173 173 173
4 -0.5 4 175 175 175
5 -0.5 4 175 175 175
5 -0.5 5 180 180 180
4 -0.5 5 180 180 180
4.5 -0.5 4.5 177 177 177
4 -0.5 5 180 180 180
5 -0.5 5 180 180 180
5 -0.5 6 185 185 185
4 -0.5 6 185 185 185
4.5 -0.5 5.5 182 182 182
4 -0.5 6 185 185 185
5 -0.5 6 185 185 185
5 -0.5 7 191 191 191
4 -0.5 7 190 190 190
4.5 -0.5 6.5 188 188 188
4 -0.5 7 190 190 190
5 -0.5 7 191 191 191
5 -0.5 8 195 195 195
4 -0.5 8 195 195 195
4.5 -0.5 7.5 193 193 193
4 -0.5 8 195 195 195
5 -0.5 8 195 195 195
5 -0.5 9 200 200 200
4 -0.5 9 199 199 199
4.5 -0.5 8.5 197 197 197
4 -0.5 9 199 199 199
5 -0.5 9 200 200 200
5 -0.5 10 204 204 204
4 -0.5 10 204 204 204
4.5 -0.5 9.5 202 202 202
4 -0.5 10 204 204 204
5 -0.5 10 204 204 204
5 -0.5 11 208 208 208
4 -0.5 11 207 207 207
4.5 -0.5 10.5 206 206 206
4 -0.5 11 207 207 207
5 -0.5 11 208 208 208
5 -0.5 12 211 211 211
4 -0.5 12 210 210 210
4.5 -0.5 11.5 209 209 209
4 -0.5 12 210 210 210
5 -0.5 12 211 211 211
5 -0.5 13 214 214 214
4 -0.5 13 213 213 213
4.5 -0.5 12.5 212 212 212
4 -0.5 13 213 213 213
5 -0.5 13 214 214 214
5 -0.5 14 217 217 217
4 -0.5 14 216 216 216
4.5 -0.5 13.5 215 215 215
4 -0.5 14 216 216 216
5 -0.5 14 217 217 217
5 -0.5 15 219 219 219
4 -0.5 15 219 219 219
4.5 -0.5 14.5 218 218 218
4 -0.5 15 219 219 219
5 -0.5 15 219 219 219
5 -0.5 16 221 221 221
4 -0.5 16 220 220 220
4.5 -0.5 15.5 220 220 220
4 -0.5 16 220 220 220
5 -0.5 16 221 221 221
5 -0.5 17 219 219 219
4 -0.5 17 214 214 214
4.5 -0.5 16.5 218 218 218
4 -0.5 17 214 214 214
5 -0.5 17 219 219 219
5 -0.5 18 202 202 202
4 -0.5 18 185 185 185
4.5 -0.5 17.5 205 205 205
4 -0.5 18 185 185 185
5 -0.5 18 202 202 202
5 -0.5 19 185 185 185
4 -0.5 19 162 162 162
4.5 -0.5 18.5 183 183 183
3 4 0 1
3 4 1 2
3 4 2 3
3 4 3 0
3 9 5 6
3 9 6 7
3 9 7 8
3 9 8 5
3 14 10 11
3 14 11 12
3 14 12 13
3 14 13 10
3 19 15 16
3 19 16 17
3 19 17 18
3 19 18 15
3 24 20 21
3 24 21 22
3 24 22 23
3 24 23 20
3 29 25 26
3 29 26 27
3 29 27 28
3 29 28 25
3 34 30 31
3 34 31 32
3 34 32 33
3 34 33 30
3 39 35 36
3 39 36 37
3 39 37 38
3 39 38 35
3 44 40 41
3 44 41 42
3 44 42 43
3 44 43 40
3 49 45 46
3 49 46 47
3 49 47 48
3 49 48 45
3 54 50 51
3 54 51 52
3 54 52 53
3 54 53 50
3 59 55 56
3 59 56 57
3 59 57 58
3 59 58 55
3 64 60 61
3 64 61 62
3 64 62 63
3 64 63 60
3 69 65 66
3 69 66 67
3 69 67 68
3 69 68 65
3 74 70 71
3 74 71 72
3 74 72 73
3 74 73 70
3 79 75 76
3 79 76 77
3 79 77 78
3 79 78 75
3 84 80 81
3 84 81 82
3 84 82 83
3 84 83 80
3 89 85 86
3 89 86 87
3 89 87 88
3 89 88 85
3 94 90 91
3 94 91 92
3 94 92 93
3 94 93 90
3 99 95 96
3 99 96 97
3 99 97 98
3 99 98 95
3 104 100 101
3 104 101 102
3 104 102 103
3 104 103 100
3 109 105 106
3 109 106 107
3 109 107 108
3 109 108 105
3 114 110 111
3 114 111 112
3 114 112 113
3 114 113 110
3 119 115 116
3 119 116 117
3 119 117 118
3 119 118 115
3 124 120 121
3 124 121 122
3 124 122 123
3 124 123 120
3 129 125 126
3 129 126 127
3 129 127 128
3 129 128 125
3 134 130 131
3 134 131 132
3 134 132 133
3 134 133 130
3 139 135 136
3 139 136 137
3 139 137 138
3 139 138 135
3 144 140 141
3 144 141 142
3 144 142 143
3 144 143 140
3 149 145 146
3 149 146 147
3 149 147 148
3 149 148 145
3 154 150 151
3 154 151 152
3 154 152 153
3 154 153 150
3 159 155 156
3 159 156 157
3 159 157 158
3 159 158 155
3 164 160 161
3 164 161 162
3 164 162 163
3 164 163 160
3 169 165 166
3 169 166 167
3 169 167 168
3 169 168 165
3 174 170 171
3 174 171 172
3 174 172 173
3 174 173 170
3 179 175 176
3 179 176 177
3 179 177 178
3 179 178 175
3 184 180 181
3 184 181 182
3 184 182 183
3 184 183 180
3 189 185 186
3 189 186 187
3 189 187 188
3 189 188 185
3 194 190 191
3 194 191 192
3 194 192 193
3 194 193 190
3 199 195 196
3 199 196 197
3 199 197 198
3 199 198 195
3 204 200 201
3 204 201 202
3 204 202 203
3 204 203 200
3 209 205 206
3 209 206 207
3 209 207 208
3 209 208 205
3 214 210 211
3 214 211 212
3 214 212 213
3 214 213 210
3 219 215 216
3 219 216 217
3 219 217 218
3 219 218 215
3 224 220 221
3 224 221 222
3 224 222 223
3 224 223 220
3 229 225 226
3 229 226 227
3 229 227 228
3 229 228 225
3 234 230 231
3 234 231 232
3 234 232 233
3 234 233 230
3 239 235 236
3 239 236 237
3 239 237 238
3 239 238 235
3 244 240 241
3 244 241 242
3 244 242 243
3 244 243 240
3 249 245 246
3 249 246 247
3 249 247 248
3 249 248 245
3 254 250 251
3 254 251 252
3 254 252 253
3 254 253 250
3 259 255 256
3 259 256 257
3 259 257 258
3 259 258 255
3 264 260 261
3 264 261 262
3 264 262 263
3 264 263 260
3 269 265 266
3 269 266 267
3 269 267 268
3 269 268 265
3 274 270 271
3 274 271 272
3 274 272 273
3 274 273 270
3 279 275 276
3 279 276 277
3 279 277 278
3 279 278 275
3 284 280 281
3 284 281 282
3 284 282 283
3 284 283 280
3 289 285 286
3 289 286 287
3 289 287 288
3 289 288 285
3 294 290 291
3 294 291 292
3 294 292 293
3 294 293 290
3 299 295 296
3 299 296 297
3 299 297 298
3 299 298 295
3 304 300 301
3 304 301 302
3 304 302 303
3 304 303 300
3 309 305 306
3 309 306 307
3 309 307 308
3 309 308 305
3 314 310 311
3 314 311 312
3 314 312 313
3 314 313 310
3 319 315 316
3 319 316 317
3 319 317 318
3 319 318 315
3 324 320 321
3 324 321 322
3 324 322 323
3 324 323 320
3 329 325 326
3 329 326 327
3 329 327 328
3 329 328 325
3 334 330 331
3 334 331 332
3 334 332 333
3 334 333 330
3 339 335 336
3 339 336 337
3 339 337 338
3 339 338 335
3 344 340 341
3 344 341 342
3 344 342 343
3 344 343 340
3 349 345 346
3 349 346 347
3 349 347 348
3 349 348 345
3 354 350 351
3 354 351 352
3 354 352 353
3 354 353 350
3 359 355 356
3 359 356 357
3 359 357 358
3 359 358 355
3 364 360 361
3 364 361 362
3 364 362 363
3 364 363 360
3 369 365 366
3 369 366 367
3 369 367 368
3 369 368 365
3 374 370 371
3 374 371 372
3 374 372 373
3 374 373 370
3 379 375 376
3 379 376 377
3 379 377 378
3 379 378 375
3 384 380 381
3 384 381 382
3 384 382 383
3 384 383 380
3 389 385 386
3 389 386 387
3 389 387 388
3 389 388 385
3 394 390 391
3 394 391 392
3 394 392 393
3 394 393 390
3 399 395 396
3 399 396 397
3 399 397 398
3 399 398 395
3 404 400 401
3 404 401 402
3 404 402 403
3 404 403 400
3 409 405 406
3 409 406 407
3 409 407 408
3 409 408 405
3 414 410 411
3 414 411 412
3 414 412 413
3 414 413 410
3 419 415 416
3 419 416 417
3 419 417 418
3 419 418 415
3 424 420 421
3 424 421 422
3 424 422 423
3 424 423 420
3 429 425 426
3 429 426 427
3 429 427 428
3 429 428 425
3 434 430 431
3 434 431 432
3 434 432 433
3 434 433 430
3 439 435 436
3 439 436 437
3 439 437 438
3 439 438 435
3 444 440 441
3 444 441 442
3 444 442 443
3 444 443 440
3 449 445 446
3 449 446 447
3 449 447 448
3 449 448 445
3 454 450 451
3 454 451 452
3 454 452 453
3 454 453 450
3 459 455 456
3 459 456 457
3 459 457 458
3 459 458 455
3 464 460 461
3 464 461 462
3 464 462 463
3 464 463 460
3 469 465 466
3 469 466 467
3 469 467 468
3 469 468 465
3 474 470 471
3 474 471 472
3 474 472 473
3 474 473 470
3 479 475 476
3 479 476 477
3 479 477 478
3 479 478 475
3 484 480 481
3 484 481 482
3 484 482 483
3 484 483 480
3 489 485 486
3 489 486 487
3 489 487 488
3 489 488 485
3 494 490 491
3 494 491 492
3 494 492 493
3 494 493 490
3 499 495 496
3 499 496 497
3 499 497 498
3 499 498 495
3 504 500 501
3 504 501 502
3 504 502 503
3 504 503 500
3 509 505 506
3 509 506 507
3 509 507 508
3 509 508 505
3 514 510 511
3 514 511 512
3 514 512 513
3 514 513 510
3 519 515 516
3 519 516 517
3 519 517 518
3 519 518 515
3 524 520 521
3 524 521 522
3 524 522 523
3 524 523 520
3 529 525 526
3 529 526 527
3 529 527 528
3 529 528 525
3 534 530 531
3 534 531 532
3 534 532 533
3 534 533 530
3 539 535 536
3 539 536 537
3 539 537 538
3 539 538 535
3 544 540 541
3 544 541 542
3 544 542 543
3 544 543 540
3 549 545 546
3 549 546 547
3 549 547 548
3 549 548 545
3 554 550 551
3 554 551 552
3 554 552 553
3 554 553 550
3 559 555 556
3 559 556 557
3 559 557 558
3 559 558 555
3 564 560 561
3 564 561 562
3 564 562 563
3 564 563 560
3 569 565 566
3 569 566 567
3 569 567 568
3 569 568 565
3 574 570 571
3 574 571 572
3 574 572 573
3 574 573 570
3 579 575 576
3 579 576 577
3 579 577 578
3 579 578 575
3 584 580 581
3 584 581 582
3 584 582 583
3 584 583 580
3 589 585 586
3 589 586 587
3 589 587 588
3 589 588 585
3 594 590 591
3 594 591 592
3 594 592 593
3 594 593 590
3 599 595 596
3 599 596 597
3 599 597 598
3 599 598 595
3 604 600 601
3 604 601 602
3 604 602 603
3 604 603 600
3 609 605 606
3 609 606 607
3 609 607 608
3 609 608 605
3 614 610 611
3 614 611 612
3 614 612 613
3 614 613 610
3 619 615 616
3 619 616 617
3 619 617 618
3 619 618 615
3 624 620 621
3 624 621 622
3 624 622 623
3 624 623 620
3 629 625 626
3 629 626 627
3 629 627 628
3 629 628 625
3 634 630 631
3 634 631 632
3 634 632 633
3 634 633 630
3 639 635 636
3 639 636 637
3 639 637 638
3 639 638 635
3 644 640 641
3 644 641 642
3 644 642 643
3 644 643 640
3 649 645 646
3 649 646 647
3 649 647 648
3 649 648 645
3 654 650 651
3 654 651 652
3 654 652 653
3 654 653 650
3 659 655 656
3 659 656 657
3 659 657 658
3 659 658 655
3 664 660 661
3 664 661 662
3 664 662 663
3 664 663 660
3 669 665 666
3 669 666 667
3 669 667 668
3 669 668 665
3 674 670 671
3 674 671 672
3 674 672 673
3 674 673 670
3 679 675 676
3 679 676 677
3 679 677 678
3 679 678 675
3 684 680 681
3 684 681 682
3 684 682 683
3 684 683 680
3 689 685 686
3 689 686 687
3 689 687 688
3 689 688 685
3 694 690 691
3 694 691 692
3 694 692 693
3 694 693 690
3 699 695 696
3 699 696 697
3 699 697 698
3 699 698 695
3 704 700 701
3 704 701 702
3 704 702 703
3 704 703 700
3 709 705 706
3 709 706 707
3 709 707 708
3 709 708 705
3 714 710 711
3 714 711 712
3 714 712 713
3 714 713 710
3 719 715 716
3 719 716 717
3 719 717 718
3 719 718 715
3 724 720 721
3 724 721 722
3 724 722 723
3 724 723 720
3 729 725 726
3 729 726 727
3 729 727 728
3 729 728 725
3 734 730 731
3 734 731 732
3 734 732 733
3 734 733 730
3 739 735 736
3 739 736 737
3 739 737 738
3 739 738 735
3 744 740 741
3 744 741 742
3 744 742 743
3 744 743 740
3 749 745 746
3 749 746 747
3 749 747 748
3 749 748 745
3 754 750 751
3 754 751 752
3 754 752 753
3 754 753 750
3 759 755 756
3 759 756 757
3 759 757 758
3 759 758 755
3 764 760 761
3 764 761 762
3 764 762 763
3 764 763 760
3 769 765 766
3 769 766 767
3 769 767 768
3 769 768 765
3 774 770 771
3 774 771 772
3 774 772 773
3 774 773 770
3 779 775 776
3 779 776 777
3 779 777 778
3 779 778 775
3 784 780 781
3 784 781 782
3 784 782 783
3 784 783 780
3 789 785 786
3 789 786 787
3 789 787 788
3 789 788 785
3 794 790 791
3 794 791 792
3 794 792 793
3 794 793 790
3 799 795 796
3 799 796 797
3 799 797 798
3 799 798 795
3 804 800 801
3 804 801 802
3 804 802 803
3 804 803 800
3 809 805 806
3 809 806 807
3 809 807 808
3 809 808 805
3 814 810 811
3 814 811 812
3 814 812 813
3 814 813 810
3 819 815 816
3 819 816 817
3 819 817 818
3 819 818 815
3 824 820 821
3 824 821 822
3 824 822 823
3 824 823 820
3 829 825 826
3 829 826 827
3 829 827 828
3 829 828 825
3 834 830 831
3 834 831 832
3 834 832 833
3 834 833 830
3 839 835 836
3 839 836 837
3 839 837 838
3 839 838 835
3 844 840 841
3 844 841 842
3 844 842 843
3 844 843 840
3 849 845 846
3 849 846 847
3 849 847 848
3 849 848 845
3 854 850 851
3 854 851 852
3 854 852 853
3 854 853 850
3 859 855 856
3 859 856 857
3 859 857 858
3 859 858 855
3 864 860 861
3 864 861 862
3 864 862 863
3 864 863 860
3 869 865 866
3 869 866 867
3 869 867 868
3 869 868 865
3 874 870 871
3 874 871 872
3 874 872 873
3 874 873 870
3 879 875 876
3 879 876 877
3 879 877 878
3 879 878 875
3 884 880 881
3 884 881 882
3 884 882 883
3 884 883 880
3 889 885 886
3 889 886 887
3 889 887 888
3 889 888 885
3 894 890 891
3 894 891 892
3 894 892 893
3 894 893 890
3 899 895 896
3 899 896 897
3 899 897 898
3 899 898 895
3 904 900 901
3 904 901 902
3 904 902 903
3 904 903 900
3 909 905 906
3 909 906 907
3 909 907 908
3 909 908 905
3 914 910 911
3 914 911 912
3 914 912 913
3 914 913 910
3 919 915 916
3 919 916 917
3 919 917 918
3 919 918 915
3 924 920 921
3 924 921 922
3 924 922 923
3 924 923 920
3 929 925 926
3 929 926 927
3 929 927 928
3 929 928 925
3 934 930 931
3 934 931 932
3 934 932 933
3 934 933 930
3 939 935 936
3 939 936 937
3 939 937 938
3 939 938 935
