{
    "accessors" : [
        {
            "bufferView" : 0,
            "componentType" : 5123,
            "count" : 57408,
            "max" : [
                57407
            ],
            "min" : [
                0
            ],
            "type" : "SCALAR"
        },
        {
            "bufferView" : 1,
            "componentType" : 5126,
            "count" : 57408,
            "max" : [
                17.0,
                40.0,
                16.0
            ],
            "min" : [
                -11.0,
                0.0,
                -14.0
            ],
            "type" : "VEC3"
        },
        {
            "bufferView" : 2,
            "componentType" : 5126,
            "count" : 57408,
            "max" : [
                1.0,
                1.0,
                1.0
            ],
            "min" : [
                -1.0,
                -1.0,
                -1.0
            ],
            "type" : "VEC3"
        },
        {
            "bufferView" : 3,
            "componentType" : 5126,
            "count" : 57408,
            "max" : [
                0.1328683257311731,
                0.7529422302946531,
                0.01599629478303328,
                1.0
            ],
            "min" : [
                0.0,
                0.0030352699429073574,
                0.0,
                1.0
            ],
            "type" : "VEC4"
        }
    ],
    "asset" : {
        "generator" : "Khronos Blender glTF 2.0 exporter",
        "version" : "2.0"
    },
    "bufferViews" : [
        {
            "buffer" : 0,
            "byteLength" : 114816,
            "byteOffset" : 0,
            "target" : 34963
        },
        {
            "buffer" : 0,
            "byteLength" : 688896,
            "byteOffset" : 114816,
            "target" : 34962
        },
        {
            "buffer" : 0,
            "byteLength" : 688896,
            "byteOffset" : 803712,
            "target" : 34962
        },
        {
            "buffer" : 0,
            "byteLength" : 918528,
            "byteOffset" : 1492608,
            "target" : 34962
        }
    ],
    "buffers" : [
        {
            "byteLength" : 2411136,
            "uri" : "plant.bin"
        }
    ],
    "meshes" : [
        {
            "name" : "plant",
            "primitives" : [
                {
                    "attributes" : {
                        "COLOR_0" : 3,
                        "NORMAL" : 2,
                        "POSITION" : 1
                    },
                    "indices" : 0
                }
            ]
        }
    ],
    "nodes" : [
        {
            "name" : "Camera",
            "rotation" : [
                0.483536034822464,
                0.33687159419059753,
                -0.20870360732078552,
                0.7804827094078064
            ],
            "translation" : [
                7.481131553649902,
                5.34366512298584,
                6.5076398849487305
            ]
        },
        {
            "name" : "Lamp",
            "rotation" : [
                0.16907575726509094,
                0.7558802962303162,
                -0.27217137813568115,
                0.570947527885437
            ],
            "scale" : [
                1.0,
                1.0,
                0.9999999403953552
            ],
            "translation" : [
                4.076245307922363,
                5.903861999511719,
                -1.0054539442062378
            ]
        },
        {
            "mesh" : 0,
            "name" : "plant"
        }
    ],
    "scene" : 0,
    "scenes" : [
        {
            "name" : "Scene",
            "nodes" : [
                2,
                1,
                0
            ]
        }
    ]
}
