{"asset":{"generator":"3D Builder","version":"2.0"},"scene":0,"scenes":[{"nodes":[0]}],"nodes":[{"mesh":0,"matrix":[0.99999994039535522,0,0,0,0,0.99999958276748657,-8.3446468579495559E-7,0,0,5.9845507394129527E-7,0.93687093257904053,0,0.0012243438977748156,0.0025415022391825914,-0.00059063464868813753,1]}],"meshes":[{"primitives":[{"attributes":{"POSITION":0},"mode":4,"indices":1,"material":0}]}],"materials":[{"name":"Metallic","pbrMetallicRoughness":{"baseColorFactor":[0.91309869289398193,0.87136721611022949,0.87136721611022949,1],"metallicFactor":1,"roughnessFactor":0}}],"accessors":[{"bufferView":0,"byteOffset":0,"count":498,"componentType":5126,"type":"VEC3","min":[-0.014419404789805412,-0.0019508701516315341,0],"max":[0.0073859822005033493,0.0011145860189571977,0.0042467243038117886]},{"bufferView":1,"byteOffset":0,"count":2976,"componentType":5125,"type":"SCALAR"}],"bufferViews":[{"buffer":0,"byteOffset":0,"byteLength":5976,"byteStride":12,"target":34962},{"buffer":0,"byteOffset":5976,"byteLength":11904,"target":34963}],"buffers":[{"byteLength":17880,"uri":"hand.bin"}]}